<?xml version="1.0" standalone="no"?>
<!DOCTYPE svg PUBLIC "-//W3C//DTD SVG 20010904//EN"
 "http://www.w3.org/TR/2001/REC-SVG-20010904/DTD/svg10.dtd">
<svg version="1.0" xmlns="http://www.w3.org/2000/svg"
 width="512.000000pt" height="512.000000pt" viewBox="0 0 512.000000 512.000000"
 preserveAspectRatio="xMidYMid meet">

<g transform="translate(0.000000,512.000000) scale(0.100000,-0.100000)"
fill="#000000" stroke="none">
<path d="M1335 4419 c-244 -41 -415 -246 -415 -499 0 -145 46 -258 144 -356
103 -103 208 -144 368 -144 111 0 191 21 270 71 96 61 174 170 204 284 8 28
14 53 14 58 0 4 -60 7 -134 7 l-134 0 -13 -37 c-16 -49 -85 -116 -135 -131
-90 -27 -168 -8 -235 58 -100 96 -104 269 -11 372 47 52 102 78 170 78 88 0
164 -45 203 -121 l19 -39 134 0 134 0 -12 48 c-23 86 -67 160 -132 222 -115
111 -273 157 -439 129z"/>
<path d="M2330 3920 l0 -480 189 0 189 0 36 108 c20 59 36 110 36 115 0 4 -43
7 -95 7 l-95 0 0 75 0 75 123 0 123 0 26 83 c15 45 29 92 33 105 l6 22 -155 0
-156 0 0 75 0 75 175 0 175 0 0 110 0 110 -305 0 -305 0 0 -480z"/>
<path d="M3597 4393 c-2 -5 -50 -148 -106 -319 l-101 -312 0 -161 0 -161 130
0 129 0 3 148 3 147 48 0 48 0 78 -145 78 -145 147 -3 c80 -1 146 -1 146 1 0
2 -42 79 -92 173 l-93 169 56 55 c41 40 61 70 74 109 19 59 22 158 6 219 -26
97 -118 185 -224 217 -53 16 -322 22 -330 8z m250 -243 c58 -35 64 -121 11
-165 -27 -23 -38 -25 -119 -25 l-89 0 0 105 0 105 83 0 c64 0 89 -4 114 -20z"/>
<path d="M880 2925 l0 -115 130 0 130 0 0 -365 0 -365 130 0 130 0 0 365 0
365 135 0 135 0 0 115 0 115 -395 0 -395 0 0 -115z"/>
<path d="M1920 2560 l0 -480 135 0 135 0 0 480 0 480 -135 0 -135 0 0 -480z"/>
<path d="M2440 2560 l0 -480 130 0 130 0 0 170 0 170 160 0 160 0 0 115 0 115
-160 0 -161 0 3 78 3 77 173 3 172 2 0 115 0 115 -305 0 -305 0 0 -480z"/>
<path d="M3324 3013 c8 -16 82 -147 165 -292 l151 -263 0 -189 0 -189 135 0
135 0 0 191 0 192 146 256 c81 141 155 271 166 289 l20 32 -146 0 -146 0 -79
-157 c-44 -87 -84 -164 -90 -172 -7 -11 -31 30 -95 157 l-86 172 -145 0 -146
0 15 -27z"/>
<path d="M1265 1696 c-177 -43 -314 -177 -360 -351 -32 -123 -14 -283 43 -389
39 -72 128 -158 204 -195 288 -142 622 -14 718 275 12 34 24 94 29 133 l7 71
-263 0 -263 0 0 -80 0 -80 120 0 c70 0 120 -4 120 -10 0 -16 -61 -80 -91 -96
-116 -60 -270 -26 -332 74 -48 76 -58 193 -23 277 22 52 72 101 128 125 99 42
219 13 290 -70 l35 -40 133 0 132 0 -7 28 c-36 150 -185 286 -356 327 -76 17
-194 18 -264 1z"/>
<path d="M2320 1210 l0 -480 188 0 188 0 36 110 36 110 -94 0 -94 0 0 75 0 75
119 0 119 0 35 105 36 105 -155 0 -155 0 3 78 3 77 173 0 172 0 0 113 0 112
-305 0 -305 0 0 -480z"/>
<path d="M3486 1371 l-106 -320 0 -161 0 -160 125 0 125 0 0 260 c0 143 3 260
8 259 4 0 92 -117 196 -260 l189 -259 108 0 109 0 0 480 0 480 -125 0 -125 0
-1 -257 c0 -257 0 -258 -19 -233 -11 14 -95 128 -188 254 -92 126 -173 231
-179 233 -7 3 -51 -114 -117 -316z"/>
</g>
</svg>
